<svg xmlns="http://www.w3.org/2000/svg" viewBox="0 0 64 64" fill="none">
  <rect width="64" height="64" rx="16" fill="#0ea5e9"/>
  <!-- Waves representing pool -->
  <path d="M10 36 Q18 30 26 36 Q34 42 42 36 Q50 30 54 36" stroke="white" stroke-width="3" stroke-linecap="round" fill="none"/>
  <path d="M10 42 Q18 36 26 42 Q34 48 42 42 Q50 36 54 42" stroke="white" stroke-width="2.5" stroke-linecap="round" fill="none" opacity="0.7"/>
  <!-- Sun -->
  <circle cx="32" cy="22" r="7" fill="#edc47f"/>
  <line x1="32" y1="10" x2="32" y2="13" stroke="#edc47f" stroke-width="2.5" stroke-linecap="round"/>
  <line x1="32" y1="31" x2="32" y2="34" stroke="#edc47f" stroke-width="2.5" stroke-linecap="round"/>
  <line x1="20" y1="22" x2="17" y2="22" stroke="#edc47f" stroke-width="2.5" stroke-linecap="round"/>
  <line x1="44" y1="22" x2="47" y2="22" stroke="#edc47f" stroke-width="2.5" stroke-linecap="round"/>
  <line x1="23.5" y1="13.5" x2="21.4" y2="11.4" stroke="#edc47f" stroke-width="2.5" stroke-linecap="round"/>
  <line x1="40.5" y1="30.5" x2="42.6" y2="32.6" stroke="#edc47f" stroke-width="2.5" stroke-linecap="round"/>
  <line x1="40.5" y1="13.5" x2="42.6" y2="11.4" stroke="#edc47f" stroke-width="2.5" stroke-linecap="round"/>
  <line x1="23.5" y1="30.5" x2="21.4" y2="32.6" stroke="#edc47f" stroke-width="2.5" stroke-linecap="round"/>
</svg>
